<svg width="716" height="120" viewBox="0 0 716 120" version="1.1" xmlns="http://www.w3.org/2000/svg" xmlns:xlink="http://www.w3.org/1999/xlink">
<title>Component</title>
<desc>Created using Figma</desc>
<g id="Canvas" transform="matrix(4 0 0 4 56 -64)">
<g id="Component">
<g id="Rectangle">
<use xlink:href="#path0_fill" transform="translate(-14 16)"/>
</g>
<g id="&#62;Utvecklarsamtal">
<use xlink:href="#path1_fill" transform="translate(-7 20)" fill="#F2F2F2"/>
</g>
</g>
</g>
<defs>
<path id="path0_fill" d="M 0 0L 179 0L 179 30L 0 30L 0 0Z"/>
<path id="path1_fill" d="M 1.66193 14.3409L 5.0625 11.2983L 5.0625 11.2472L 1.66193 8.20455L 3.34943 6.64489L 8.48864 11.2727L 3.34943 15.9006L 1.66193 14.3409ZM 18.8548 3.90909L 18.8548 12.4489C 18.8548 13.7273 17.9344 14.5199 16.5281 14.5199C 15.1219 14.5199 14.1503 13.7273 14.1503 12.4489L 14.1503 3.90909L 11.1844 3.90909L 11.1844 12.5511C 11.1844 15.5426 13.3576 17.179 16.5281 17.179C 19.673 17.179 21.8207 15.5426 21.8207 12.5511L 21.8207 3.90909L 18.8548 3.90909ZM 29.2354 7.18182L 27.7013 7.18182L 27.7013 5.08523L 24.7609 5.08523L 24.7609 7.18182L 23.5592 7.18182L 23.5592 9.22727L 24.7609 9.22727L 24.7609 14.2642C 24.7609 16.0028 26.2183 17.179 27.7268 17.179C 28.1871 17.179 28.5706 17.179 29.3632 17.0511L 29.3632 14.8011L 28.6217 14.8011C 28.2638 14.8011 27.7013 14.6477 27.7013 13.9062L 27.7013 9.22727L 29.2354 9.22727L 29.2354 7.18182ZM 39.7917 7.18182L 36.8258 7.18182L 35.215 13.446L 35.1127 13.446L 33.5019 7.18182L 30.536 7.18182L 33.732 17L 36.5957 17L 39.7917 7.18182ZM 45.5604 17.179C 47.4013 17.179 48.7053 16.3097 49.2933 15.4403L 47.6314 13.8295C 47.0689 14.5199 46.5831 14.8267 45.7394 14.8267C 44.6208 14.8267 43.8154 14.2322 43.5661 13.0625L 49.549 13.0625L 49.549 11.8352C 49.549 8.92045 47.9638 7.05398 45.2536 7.05398C 42.3132 7.05398 40.728 9.25284 40.728 12.2443C 40.728 15.0057 42.5178 17.179 45.5604 17.179ZM 45.228 9.38068C 46.3274 9.38068 46.8132 10.3267 46.8132 11.1705L 43.5725 11.1705C 43.7578 10.0902 44.2692 9.38068 45.228 9.38068ZM 59.8896 10.4545C 59.6084 8.53693 58.1766 7.05398 55.6964 7.05398C 52.7561 7.05398 51.0942 9.2017 51.0942 12.1165C 51.0942 15.0568 52.7561 17.179 55.722 17.179C 57.9464 17.179 59.6084 15.9773 59.8896 13.9574L 57.2561 13.4972C 57.1283 14.0341 56.7703 14.8267 55.6709 14.8267C 54.3413 14.8267 53.8811 13.6761 53.8811 12.1165C 53.8811 10.608 54.3413 9.38068 55.6453 9.38068C 56.9237 9.38068 57.205 10.5824 57.2817 10.9403L 59.8896 10.4545ZM 67.7565 17L 70.927 17L 67.2515 11.3622L 70.7736 7.18182L 67.373 7.18182L 64.765 10.429L 64.6372 10.429L 64.6372 3.90909L 61.6969 3.90909L 61.6969 17L 64.6372 17L 64.6372 14.4688L 65.4873 13.4588L 67.7565 17ZM 75.1264 3.90909L 72.1861 3.90909L 72.1861 17L 75.1264 17L 75.1264 3.90909ZM 82.6146 17L 85.4271 17L 85.4271 10.4545C 85.4271 8.17898 83.6373 7.05398 81.3873 7.05398C 79.3418 7.05398 77.6032 8 77.0918 9.86648L 79.8532 10.25C 80.0833 9.55966 80.4668 9.22727 81.2339 9.22727C 82.1032 9.22727 82.4612 9.63636 82.4612 10.429L 82.4612 10.8892L 81.464 10.9659C 78.2168 11.2216 77.0407 12.5 77.0407 14.2386C 77.0407 16.1818 78.4981 17.179 80.2623 17.179C 81.5151 17.179 82.231 16.6676 82.5379 16.1562L 82.6146 16.1562L 82.6146 17ZM 82.4612 12.7301L 82.4612 13.8551C 82.4612 14.5455 81.6941 15.0568 80.9271 15.0568C 80.2879 15.0568 79.8788 14.6989 79.8788 14.1619C 79.8788 13.446 80.8759 12.8324 82.0265 12.7557L 82.4612 12.7301ZM 93.0047 7.10511C 92.8257 7.05398 92.6212 7.05398 92.5445 7.05398C 91.7263 7.05398 90.9081 7.76989 90.6269 8.43466L 90.5502 8.43466L 90.5502 7.18182L 87.6098 7.18182L 87.6098 17L 90.5502 17L 90.5502 11.3239C 90.5502 10.429 91.3172 9.81534 92.4166 9.81534C 92.5701 9.81534 92.8513 9.81534 93.0047 9.84091L 93.0047 7.10511ZM 94.6457 9.94318C 94.6457 11.017 95.2849 12.1676 96.9469 12.7812L 97.5094 12.9858C 98.5577 13.3693 99.1969 13.5994 99.1969 14.1108C 99.1969 14.4687 98.7366 14.7244 98.1486 14.7244C 97.1259 14.7244 96.6401 14.0341 96.4355 13.7273L 94.3134 15.2869C 95.2849 16.6932 96.9469 17.179 98.302 17.179C 100.526 17.179 102.009 15.7472 102.009 14.1364C 102.009 12.8835 101.114 11.6562 99.2991 11.017L 98.7878 10.8381C 98.0207 10.5824 97.5094 10.5312 97.5094 10.0199C 97.5094 9.71307 97.8673 9.43182 98.5065 9.43182C 99.4014 9.43182 99.9128 9.99432 100.066 10.1989L 102.086 8.74148C 101.345 7.59091 99.9128 7.05398 98.3531 7.05398C 95.9497 7.05398 94.6457 8.38352 94.6457 9.94318ZM 109.371 17L 112.184 17L 112.184 10.4545C 112.184 8.17898 110.394 7.05398 108.144 7.05398C 106.099 7.05398 104.36 8 103.849 9.86648L 106.61 10.25C 106.84 9.55966 107.224 9.22727 107.991 9.22727C 108.86 9.22727 109.218 9.63636 109.218 10.429L 109.218 10.8892L 108.221 10.9659C 104.974 11.2216 103.797 12.5 103.797 14.2386C 103.797 16.1818 105.255 17.179 107.019 17.179C 108.272 17.179 108.988 16.6676 109.295 16.1562L 109.371 16.1562L 109.371 17ZM 109.218 12.7301L 109.218 13.8551C 109.218 14.5455 108.451 15.0568 107.684 15.0568C 107.045 15.0568 106.635 14.6989 106.635 14.1619C 106.635 13.446 107.633 12.8324 108.783 12.7557L 109.218 12.7301ZM 122.676 10.9148C 122.676 9.84091 123.162 9.38068 123.955 9.38068C 124.645 9.38068 125.182 9.73864 125.182 10.8636L 125.182 17L 128.122 17L 128.122 10.8636C 128.122 8.02557 126.793 7.05398 125.131 7.05398C 123.878 7.05398 122.906 7.61648 122.369 8.40909L 122.267 8.40909C 121.858 7.53977 121.04 7.05398 119.864 7.05398C 118.662 7.05398 117.869 7.53977 117.307 8.23011L 117.23 8.23011L 117.23 7.18182L 114.367 7.18182L 114.367 17L 117.307 17L 117.307 10.8125C 117.307 9.7642 117.844 9.38068 118.509 9.38068C 119.25 9.38068 119.838 9.81534 119.838 10.8636L 119.838 17L 122.676 17L 122.676 10.9148ZM 135.248 7.18182L 133.714 7.18182L 133.714 5.08523L 130.773 5.08523L 130.773 7.18182L 129.571 7.18182L 129.571 9.22727L 130.773 9.22727L 130.773 14.2642C 130.773 16.0028 132.231 17.179 133.739 17.179C 134.199 17.179 134.583 17.179 135.375 17.0511L 135.375 14.8011L 134.634 14.8011C 134.276 14.8011 133.714 14.6477 133.714 13.9062L 133.714 9.22727L 135.248 9.22727L 135.248 7.18182ZM 142.403 17L 145.216 17L 145.216 10.4545C 145.216 8.17898 143.426 7.05398 141.176 7.05398C 139.131 7.05398 137.392 8 136.881 9.86648L 139.642 10.25C 139.872 9.55966 140.256 9.22727 141.023 9.22727C 141.892 9.22727 142.25 9.63636 142.25 10.429L 142.25 10.8892L 141.253 10.9659C 138.006 11.2216 136.83 12.5 136.83 14.2386C 136.83 16.1818 138.287 17.179 140.051 17.179C 141.304 17.179 142.02 16.6676 142.327 16.1562L 142.403 16.1562L 142.403 17ZM 142.25 12.7301L 142.25 13.8551C 142.25 14.5455 141.483 15.0568 140.716 15.0568C 140.077 15.0568 139.668 14.6989 139.668 14.1619C 139.668 13.446 140.665 12.8324 141.815 12.7557L 142.25 12.7301ZM 150.339 3.90909L 147.399 3.90909L 147.399 17L 150.339 17L 150.339 3.90909Z"/>
</defs>
</svg>
